<svg width="294" height="63" viewBox="0 0 294 63" fill="none" xmlns="http://www.w3.org/2000/svg">
<path d="M18.8 47C18.2667 47 17.8333 46.8667 17.5 46.6C17.2 46.3 16.9833 45.95 16.85 45.55L6.35 13.5C6.31667 13.3333 6.3 13.1833 6.3 13.05C6.3 12.7833 6.4 12.55 6.6 12.35C6.8 12.1167 7.05 12 7.35 12H12.6C13.1 12 13.4833 12.15 13.75 12.45C14.05 12.7167 14.2333 12.9667 14.3 13.2L22.1 37.65L29.85 13.2C29.95 12.9667 30.1333 12.7167 30.4 12.45C30.6667 12.15 31.05 12 31.55 12H36.8C37.1 12 37.35 12.1167 37.55 12.35C37.75 12.55 37.85 12.7833 37.85 13.05C37.85 13.1833 37.8333 13.3333 37.8 13.5L27.3 45.55C27.2 45.95 26.9833 46.3 26.65 46.6C26.35 46.8667 25.9167 47 25.35 47H18.8ZM44.0809 47C43.7142 47 43.4142 46.8833 43.1809 46.65C42.9475 46.4167 42.8309 46.1167 42.8309 45.75V13.25C42.8309 12.8833 42.9475 12.5833 43.1809 12.35C43.4142 12.1167 43.7142 12 44.0809 12H66.7309C67.0975 12 67.3975 12.1167 67.6309 12.35C67.8642 12.5833 67.9809 12.8833 67.9809 13.25V17.25C67.9809 17.5833 67.8642 17.8667 67.6309 18.1C67.3975 18.3333 67.0975 18.45 66.7309 18.45H50.5309V26.3H65.6309C65.9975 26.3 66.2975 26.4167 66.5309 26.65C66.7642 26.8833 66.8809 27.1833 66.8809 27.55V31.25C66.8809 31.5833 66.7642 31.8667 66.5309 32.1C66.2975 32.3333 65.9975 32.45 65.6309 32.45H50.5309V40.55H67.1309C67.4975 40.55 67.7975 40.6667 68.0309 40.9C68.2642 41.1333 68.3809 41.4333 68.3809 41.8V45.75C68.3809 46.1167 68.2642 46.4167 68.0309 46.65C67.7975 46.8833 67.4975 47 67.1309 47H44.0809ZM83.275 47C82.9083 47 82.6083 46.8833 82.375 46.65C82.1417 46.4167 82.025 46.1167 82.025 45.75V18.95H72.925C72.5917 18.95 72.3083 18.8333 72.075 18.6C71.8417 18.3667 71.725 18.0833 71.725 17.75V13.25C71.725 12.8833 71.8417 12.5833 72.075 12.35C72.3083 12.1167 72.5917 12 72.925 12H99.125C99.4917 12 99.7917 12.1167 100.025 12.35C100.258 12.5833 100.375 12.8833 100.375 13.25V17.75C100.375 18.0833 100.258 18.3667 100.025 18.6C99.7917 18.8333 99.4917 18.95 99.125 18.95H90.075V45.75C90.075 46.1167 89.9583 46.4167 89.725 46.65C89.4917 46.8833 89.1917 47 88.825 47H83.275ZM114.134 47C113.768 47 113.468 46.8833 113.234 46.65C113.001 46.4167 112.884 46.1167 112.884 45.75V18.95H103.784C103.451 18.95 103.168 18.8333 102.934 18.6C102.701 18.3667 102.584 18.0833 102.584 17.75V13.25C102.584 12.8833 102.701 12.5833 102.934 12.35C103.168 12.1167 103.451 12 103.784 12H129.984C130.351 12 130.651 12.1167 130.884 12.35C131.118 12.5833 131.234 12.8833 131.234 13.25V17.75C131.234 18.0833 131.118 18.3667 130.884 18.6C130.651 18.8333 130.351 18.95 129.984 18.95H120.934V45.75C120.934 46.1167 120.818 46.4167 120.584 46.65C120.351 46.8833 120.051 47 119.684 47H114.134ZM137.294 47C136.927 47 136.627 46.8833 136.394 46.65C136.16 46.4167 136.044 46.1167 136.044 45.75V13.25C136.044 12.8833 136.16 12.5833 136.394 12.35C136.627 12.1167 136.927 12 137.294 12H142.944C143.31 12 143.61 12.1167 143.844 12.35C144.077 12.5833 144.194 12.8833 144.194 13.25V45.75C144.194 46.1167 144.077 46.4167 143.844 46.65C143.61 46.8833 143.31 47 142.944 47H137.294ZM152.821 47C152.488 47 152.188 46.8833 151.921 46.65C151.688 46.4167 151.571 46.1167 151.571 45.75V13.25C151.571 12.8833 151.688 12.5833 151.921 12.35C152.188 12.1167 152.488 12 152.821 12H157.471C157.971 12 158.338 12.1333 158.571 12.4C158.838 12.6667 159.021 12.8667 159.121 13L168.321 29.95L177.621 13C177.688 12.8667 177.838 12.6667 178.071 12.4C178.338 12.1333 178.721 12 179.221 12H183.871C184.238 12 184.538 12.1167 184.771 12.35C185.004 12.5833 185.121 12.8833 185.121 13.25V45.75C185.121 46.1167 185.004 46.4167 184.771 46.65C184.538 46.8833 184.238 47 183.871 47H178.771C178.438 47 178.154 46.8833 177.921 46.65C177.688 46.4167 177.571 46.1167 177.571 45.75V25.55L171.221 37.45C171.054 37.75 170.838 38.0167 170.571 38.25C170.304 38.4833 169.954 38.6 169.521 38.6H167.171C166.738 38.6 166.388 38.4833 166.121 38.25C165.854 38.0167 165.638 37.75 165.471 37.45L159.121 25.55V45.75C159.121 46.1167 159.004 46.4167 158.771 46.65C158.538 46.8833 158.254 47 157.921 47H152.821ZM193.788 47C193.421 47 193.121 46.8833 192.888 46.65C192.655 46.4167 192.538 46.1167 192.538 45.75V13.25C192.538 12.8833 192.655 12.5833 192.888 12.35C193.121 12.1167 193.421 12 193.788 12H216.438C216.805 12 217.105 12.1167 217.338 12.35C217.571 12.5833 217.688 12.8833 217.688 13.25V17.25C217.688 17.5833 217.571 17.8667 217.338 18.1C217.105 18.3333 216.805 18.45 216.438 18.45H200.238V26.3H215.338C215.705 26.3 216.005 26.4167 216.238 26.65C216.471 26.8833 216.588 27.1833 216.588 27.55V31.25C216.588 31.5833 216.471 31.8667 216.238 32.1C216.005 32.3333 215.705 32.45 215.338 32.45H200.238V40.55H216.838C217.205 40.55 217.505 40.6667 217.738 40.9C217.971 41.1333 218.088 41.4333 218.088 41.8V45.75C218.088 46.1167 217.971 46.4167 217.738 46.65C217.505 46.8833 217.205 47 216.838 47H193.788Z" fill="#222222"/>
<rect x="2" y="54" width="226" height="9" rx="2" fill="url(#paint0_linear_13_22)"/>
<rect x="2" y="54" width="226" height="9" rx="2" fill="url(#paint1_linear_13_22)"/>
<rect x="238" y="12" width="56" height="9" rx="2" fill="url(#paint2_linear_13_22)"/>
<rect x="238" y="25" width="33" height="9" rx="2" fill="url(#paint3_linear_13_22)"/>
<rect x="238" y="38" width="17" height="9" rx="2" fill="url(#paint4_linear_13_22)"/>
<defs>
<linearGradient id="paint0_linear_13_22" x1="2" y1="58.5" x2="228" y2="58.5" gradientUnits="userSpaceOnUse">
<stop stop-color="#6466F1"/>
<stop offset="1" stop-color="#6466F1" stop-opacity="0.5"/>
</linearGradient>
<linearGradient id="paint1_linear_13_22" x1="2" y1="58.5" x2="228" y2="58.5" gradientUnits="userSpaceOnUse">
<stop stop-color="#6466F1"/>
<stop offset="1" stop-color="#6466F1" stop-opacity="0.5"/>
</linearGradient>
<linearGradient id="paint2_linear_13_22" x1="238" y1="16.5" x2="294" y2="16.5" gradientUnits="userSpaceOnUse">
<stop stop-color="#6466F1"/>
<stop offset="1" stop-color="#6466F1" stop-opacity="0.5"/>
</linearGradient>
<linearGradient id="paint3_linear_13_22" x1="238" y1="29.5" x2="271" y2="29.5" gradientUnits="userSpaceOnUse">
<stop stop-color="#6466F1"/>
<stop offset="1" stop-color="#6466F1" stop-opacity="0.5"/>
</linearGradient>
<linearGradient id="paint4_linear_13_22" x1="238" y1="42.5" x2="255" y2="42.5" gradientUnits="userSpaceOnUse">
<stop stop-color="#6466F1"/>
<stop offset="1" stop-color="#6466F1" stop-opacity="0.5"/>
</linearGradient>
</defs>
</svg>
